<?xml version="1.0" encoding="utf-8"?>
<svg xmlns="http://www.w3.org/2000/svg" xmlns:xlink="http://www.w3.org/1999/xlink">

    <symbol fill="currentColor" class="bi bi-vector-pen" viewBox="0 0 16 16" id="vector-pen" xmlns="http://www.w3.org/2000/svg">
        <path fill-rule="evenodd" d="M10.646.646a.5.5 0 01.708 0l4 4a.5.5 0 010 .708l-1.902 1.902-.829 3.313a1.5 1.5 0 01-1.024 1.073L1.254 14.746 4.358 4.4A1.5 1.5 0 015.43 3.377l3.313-.828L10.646.646zm-1.8 2.908l-3.173.793a.5.5 0 00-.358.342l-2.57 8.565 8.567-2.57a.5.5 0 00.34-.357l.794-3.174-3.6-3.6z"/>
        <path fill-rule="evenodd" d="M2.832 13.228L8 9a1 1 0 10-1-1l-4.228 5.168-.026.086.086-.026z"/>
    </symbol>

    <symbol fill="currentColor" class="bi bi-house-door" viewBox="0 0 16 16" id="house-door" xmlns="http://www.w3.org/2000/svg">
        <path fill-rule="evenodd" d="M7.646 1.146a.5.5 0 01.708 0l6 6a.5.5 0 01.146.354v7a.5.5 0 01-.5.5H9.5a.5.5 0 01-.5-.5v-4H7v4a.5.5 0 01-.5.5H2a.5.5 0 01-.5-.5v-7a.5.5 0 01.146-.354l6-6zM2.5 7.707V14H6v-4a.5.5 0 01.5-.5h3a.5.5 0 01.5.5v4h3.5V7.707L8 2.207l-5.5 5.5z"/>
        <path fill-rule="evenodd" d="M13 2.5V6l-2-2V2.5a.5.5 0 01.5-.5h1a.5.5 0 01.5.5z"/>
    </symbol>

    <symbol fill="currentColor" class="bi bi-layout-text-window-reverse" viewBox="0 0 16 16" id="layout-text-window-reverse" xmlns="http://www.w3.org/2000/svg">
        <path fill-rule="evenodd" d="M2 1h12a1 1 0 011 1v12a1 1 0 01-1 1H2a1 1 0 01-1-1V2a1 1 0 011-1zm12-1a2 2 0 012 2v12a2 2 0 01-2 2H2a2 2 0 01-2-2V2a2 2 0 012-2h12z"/>
        <path fill-rule="evenodd" d="M5 15V4H4v11h1zM.5 4h15V3H.5v1zM13 6.5a.5.5 0 00-.5-.5h-5a.5.5 0 000 1h5a.5.5 0 00.5-.5zm0 3a.5.5 0 00-.5-.5h-5a.5.5 0 000 1h5a.5.5 0 00.5-.5zm0 3a.5.5 0 00-.5-.5h-5a.5.5 0 000 1h5a.5.5 0 00.5-.5z"/>
    </symbol>

    <symbol fill="currentColor" class="bi bi-emoji-smile" viewBox="0 0 16 16" id="emoji-smile" xmlns="http://www.w3.org/2000/svg">
        <path fill-rule="evenodd" d="M8 15A7 7 0 108 1a7 7 0 000 14zm0 1A8 8 0 108 0a8 8 0 000 16z"/>
        <path fill-rule="evenodd" d="M4.285 9.567a.5.5 0 01.683.183A3.498 3.498 0 008 11.5a3.498 3.498 0 003.032-1.75.5.5 0 11.866.5A4.498 4.498 0 018 12.5a4.498 4.498 0 01-3.898-2.25.5.5 0 01.183-.683z"/>
        <path d="M7 6.5C7 7.328 6.552 8 6 8s-1-.672-1-1.5S5.448 5 6 5s1 .672 1 1.5zm4 0c0 .828-.448 1.5-1 1.5s-1-.672-1-1.5S9.448 5 10 5s1 .672 1 1.5z"/>
    </symbol>

    <symbol fill="currentColor" class="bi bi-emoji-sunglasses" viewBox="0 0 16 16" id="emoji-sunglasses" xmlns="http://www.w3.org/2000/svg">
        <path fill-rule="evenodd" d="M8 15A7 7 0 108 1a7 7 0 000 14zm0 1A8 8 0 108 0a8 8 0 000 16z"/>
        <path fill-rule="evenodd" d="M4.285 9.567a.5.5 0 01.683.183A3.498 3.498 0 008 11.5a3.498 3.498 0 003.032-1.75.5.5 0 11.866.5A4.498 4.498 0 018 12.5a4.498 4.498 0 01-3.898-2.25.5.5 0 01.183-.683zM6.5 6.497V6.5h-1c0-.568.447-.947.862-1.154C6.807 5.123 7.387 5 8 5s1.193.123 1.638.346c.415.207.862.586.862 1.154h-1v-.003l-.003-.01a.213.213 0 00-.036-.053.86.86 0 00-.27-.194C8.91 6.1 8.49 6 8 6c-.491 0-.912.1-1.19.24a.86.86 0 00-.271.194.213.213 0 00-.036.054l-.003.01z"/>
        <path d="M2.31 5.243A1 1 0 013.28 4H6a1 1 0 011 1v1a2 2 0 01-2 2h-.438a2 2 0 01-1.94-1.515L2.31 5.243zM9 5a1 1 0 011-1h2.72a1 1 0 01.97 1.243l-.311 1.242A2 2 0 0111.439 8H11a2 2 0 01-2-2V5z"/>
    </symbol>

    <symbol fill="currentColor" class="bi bi-file-person" viewBox="0 0 16 16" id="file-person" xmlns="http://www.w3.org/2000/svg">
        <path fill-rule="evenodd" d="M12 1H4a1 1 0 00-1 1v10.755S4 11 8 11s5 1.755 5 1.755V2a1 1 0 00-1-1zM4 0a2 2 0 00-2 2v12a2 2 0 002 2h8a2 2 0 002-2V2a2 2 0 00-2-2H4z"/>
        <path fill-rule="evenodd" d="M8 10a3 3 0 100-6 3 3 0 000 6z"/>
    </symbol>

    <symbol fill="currentColor" class="bi bi-broadcast-pin" viewBox="0 0 16 16" id="broadcast-pin" xmlns="http://www.w3.org/2000/svg">
        <path fill-rule="evenodd" d="M3.05 3.05a7 7 0 000 9.9.5.5 0 01-.707.707 8 8 0 010-11.314.5.5 0 01.707.707zm2.122 2.122a4 4 0 000 5.656.5.5 0 01-.708.708 5 5 0 010-7.072.5.5 0 01.708.708zm5.656-.708a.5.5 0 01.708 0 5 5 0 010 7.072.5.5 0 11-.708-.708 4 4 0 000-5.656.5.5 0 010-.708zm2.122-2.12a.5.5 0 01.707 0 8 8 0 010 11.313.5.5 0 01-.707-.707 7 7 0 000-9.9.5.5 0 010-.707zM6 8a2 2 0 112.5 1.937V15.5a.5.5 0 01-1 0V9.937A2 2 0 016 8z"/>
    </symbol>

    <symbol fill="currentColor" class="bi bi-linkedin" viewBox="0 0 16 16" id="linkedin" xmlns="http://www.w3.org/2000/svg">
        <path fill-rule="evenodd" d="M0 1.146C0 .513.526 0 1.175 0h13.65C15.474 0 16 .513 16 1.146v13.708c0 .633-.526 1.146-1.175 1.146H1.175C.526 16 0 15.487 0 14.854V1.146zm4.943 12.248V6.169H2.542v7.225h2.401zm-1.2-8.212c.837 0 1.358-.554 1.358-1.248-.015-.709-.52-1.248-1.342-1.248-.822 0-1.359.54-1.359 1.248 0 .694.521 1.248 1.327 1.248h.016zm4.908 8.212h-2.4s.03-6.547 0-7.225h2.4v1.023a5.54 5.54 0 00-.016.025h.016v-.025c.32-.493.89-1.193 2.165-1.193 1.58 0 2.764 1.033 2.764 3.252v4.143h-2.4V9.529c0-.972-.348-1.634-1.217-1.634-.664 0-1.059.447-1.233.878-.063.154-.079.37-.079.586v4.035z"/>
    </symbol>

    <symbol fill="currentColor" class="bi bi-github" viewBox="0 0 16 16" id="github" xmlns="http://www.w3.org/2000/svg">
        <path fill-rule="evenodd" d="M8 0C3.58 0 0 3.58 0 8c0 3.54 2.29 6.53 5.47 7.59.4.07.55-.17.55-.38 0-.19-.01-.82-.01-1.49-2.01.37-2.53-.49-2.69-.94-.09-.23-.48-.94-.82-1.13-.28-.15-.68-.52-.01-.53.63-.01 1.08.58 1.23.82.72 1.21 1.87.87 2.33.66.07-.52.28-.87.51-1.07-1.78-.2-3.64-.89-3.64-3.95 0-.87.31-1.59.82-2.15-.08-.2-.36-1.02.08-2.12 0 0 .67-.21 2.2.82.64-.18 1.32-.27 2-.27.68 0 1.36.09 2 .27 1.53-1.04 2.2-.82 2.2-.82.44 1.1.16 1.92.08 2.12.51.56.82 1.27.82 2.15 0 3.07-1.87 3.75-3.65 3.95.29.25.54.73.54 1.48 0 1.07-.01 1.93-.01 2.2 0 .21.15.46.55.38A8.012 8.012 0 0016 8c0-4.42-3.58-8-8-8z"/>
    </symbol>

    <symbol fill="currentColor" class="bi bi-twitter" viewBox="0 0 16 16" id="twitter" xmlns="http://www.w3.org/2000/svg">
        <path d="M5.026 15c6.038 0 9.341-5.003 9.341-9.334 0-.14 0-.282-.006-.422A6.685 6.685 0 0016 3.542a6.658 6.658 0 01-1.889.518 3.301 3.301 0 001.447-1.817 6.533 6.533 0 01-2.087.793A3.286 3.286 0 007.875 6.03a9.325 9.325 0 01-6.767-3.429 3.289 3.289 0 001.018 4.382A3.323 3.323 0 01.64 6.575v.045a3.288 3.288 0 002.632 3.218 3.203 3.203 0 01-.865.115 3.23 3.23 0 01-.614-.057 3.283 3.283 0 003.067 2.277A6.588 6.588 0 01.78 13.58a6.32 6.32 0 01-.78-.045A9.344 9.344 0 005.026 15z"/>
    </symbol>

</svg>